# Blender v3.6.5 OBJ File: ''
# www.blender.org
mtllib Заготовка.mtl
o Куб_Куб.001
v -1.000000 -0.673652 2.751686
v 0.000000 0.673652 2.336271
v 0.000000 -0.673652 2.751686
v -0.429810 0.673652 2.336271
v -1.000000 -0.673652 0.000000
v 0.000000 0.673652 0.000000
v 0.000000 -0.673652 0.000000
v -0.429576 0.673652 0.000000
v 1.000000 -0.673652 2.751686
v 0.429810 0.673652 2.336271
v 1.000000 -0.673652 0.000000
v 0.429576 0.673652 0.000000
v -1.000000 -0.673652 -2.751686
v 0.000000 0.673652 -2.336271
v 0.000000 -0.673652 -2.751686
v -0.429810 0.673652 -2.336271
v 1.000000 -0.673652 -2.751686
v 0.429810 0.673652 -2.336271
vt 0.625000 0.625034
vt 0.625000 0.882883
vt 0.625000 0.837258
vt 0.625000 0.625000
vt 0.125000 0.625000
vt 0.250000 0.625000
vt 0.250000 0.750000
vt 0.125000 0.750000
vt 0.375000 0.625000
vt 0.375000 1.000000
vt 0.625000 0.625034
vt 0.625000 0.882883
vt 0.125000 0.625000
vt 0.125000 0.750000
vt 0.375000 1.000000
vt 0.375000 0.625000
vt 0.625000 0.837258
vt 0.625000 0.882883
vt 0.125000 0.750000
vt 0.250000 0.750000
vt 0.375000 1.000000
vt 0.625000 0.882883
vt 0.125000 0.750000
vt 0.375000 1.000000
vn 0.0000 1.0000 0.0000
vn 0.0000 -1.0000 0.0000
vn -0.9209 0.3898 -0.0000
vn 0.0000 0.2946 0.9556
vn 0.9209 0.3898 -0.0000
vn 0.0000 0.2946 -0.9556
usemtl None
s off
f 8/1/1 4/2/1 2/3/1 6/4/1
f 5/5/2 7/6/2 3/7/2 1/8/2
f 4/2/3 8/1/3 5/9/3 1/10/3
f 2/3/4 4/2/4 1/8/4 3/7/4
f 12/11/1 6/4/1 2/3/1 10/12/1
f 11/13/2 9/14/2 3/7/2 7/6/2
f 10/12/5 9/15/5 11/16/5 12/11/5
f 2/3/4 3/7/4 9/14/4 10/12/4
f 8/1/1 6/4/1 14/17/1 16/18/1
f 5/5/2 13/19/2 15/20/2 7/6/2
f 16/18/3 13/21/3 5/9/3 8/1/3
f 14/17/6 15/20/6 13/19/6 16/18/6
f 12/11/1 18/22/1 14/17/1 6/4/1
f 11/13/2 7/6/2 15/20/2 17/23/2
f 18/22/5 12/11/5 11/16/5 17/24/5
f 14/17/6 18/22/6 17/23/6 15/20/6
